<?xml version="1.0" standalone="no"?>
<!DOCTYPE svg PUBLIC "-//W3C//DTD SVG 20010904//EN"
 "http://www.w3.org/TR/2001/REC-SVG-20010904/DTD/svg10.dtd">
<svg version="1.0" xmlns="http://www.w3.org/2000/svg"
 width="512.000000pt" height="149.000000pt" viewBox="0 0 512.000000 149.000000"
 preserveAspectRatio="xMidYMid meet">

<g transform="translate(0.000000,149.000000) scale(0.100000,-0.100000)"
fill="#000000" stroke="none">
<path d="M1350 1454 c-69 -19 -131 -37 -139 -40 -11 -3 -6 -13 17 -37 l32 -33
-545 -544 -545 -545 37 -37 c20 -21 42 -38 48 -38 5 0 253 243 550 540 l539
540 33 -32 32 -31 15 54 c44 158 64 239 58 238 -4 0 -63 -16 -132 -35z"/>
<path d="M590 1425 c-150 -32 -257 -86 -360 -182 -99 -91 -169 -210 -206 -349
-22 -81 -25 -264 -5 -334 12 -44 51 -150 58 -160 2 -2 132 124 288 280 l285
284 33 -32 33 -32 33 128 c19 70 36 135 39 144 3 15 -13 12 -129 -18 -74 -20
-137 -39 -142 -43 -4 -4 4 -18 18 -31 14 -13 25 -28 25 -34 0 -6 -96 -108
-214 -225 -246 -246 -233 -242 -224 -63 9 180 99 344 246 449 122 87 233 118
392 111 74 -4 112 -12 172 -35 l77 -30 41 42 41 41 -58 29 c-127 62 -315 88
-443 60z"/>
<path d="M1294 1048 l-42 -43 20 -45 c98 -226 47 -483 -131 -661 -119 -120
-258 -179 -421 -179 -122 0 -123 2 -34 91 l78 79 32 -31 c17 -17 34 -27 37
-22 3 4 19 62 36 128 18 66 34 127 37 136 4 14 -14 11 -113 -16 -65 -18 -131
-35 -147 -39 l-29 -7 34 -35 33 -34 -144 -145 -144 -144 46 -21 c184 -81 424
-71 608 26 139 73 250 189 316 329 49 106 67 186 67 305 1 120 -17 199 -66
303 l-32 68 -41 -43z"/>
<path d="M3167 953 c-4 -3 -7 -91 -7 -195 l0 -188 25 0 c25 0 25 0 25 99 0 84
3 102 21 125 26 33 84 36 117 6 20 -19 22 -31 22 -125 l0 -105 25 0 c25 0 25
0 25 98 0 108 -16 157 -60 180 -32 17 -105 9 -130 -13 -20 -18 -20 -17 -20 53
0 63 -2 72 -18 72 -10 0 -22 -3 -25 -7z"/>
<path d="M4470 885 l0 -74 -36 24 c-80 54 -181 14 -201 -80 -14 -64 -1 -114
41 -152 30 -28 43 -33 85 -33 39 0 56 6 80 26 l31 26 0 -26 c0 -19 5 -26 20
-26 19 0 20 7 20 195 0 188 -1 195 -20 195 -18 0 -20 -7 -20 -75z m-37 -89
c70 -65 29 -189 -63 -189 -91 0 -132 121 -65 189 33 33 92 33 128 0z"/>
<path d="M2040 795 c0 -153 9 -184 62 -211 41 -21 129 -15 159 12 39 35 49 76
49 209 l0 125 -25 0 -25 0 0 -138 c0 -132 -1 -140 -23 -160 -30 -28 -95 -30
-128 -3 -23 18 -24 26 -27 160 -3 131 -5 141 -23 141 -18 0 -19 -8 -19 -135z"/>
<path d="M2896 922 c-7 -11 -126 -339 -126 -347 0 -3 9 -5 21 -5 15 0 25 11
36 40 l16 40 82 0 82 0 13 -40 c10 -32 18 -40 37 -40 12 0 23 1 23 3 0 1 -29
81 -64 177 -58 159 -66 175 -89 178 -14 2 -28 -1 -31 -6z m63 -141 c17 -47 31
-86 31 -88 0 -2 -29 -3 -65 -3 -36 0 -65 3 -65 6 0 4 11 39 25 78 14 39 28 77
31 85 7 20 9 16 43 -78z"/>
<path d="M2417 854 c-4 -4 -7 -101 -7 -216 l0 -209 23 3 c21 3 22 9 28 98 3
52 6 89 7 83 3 -21 58 -43 106 -43 107 0 165 143 97 239 -40 55 -145 66 -187
20 l-19 -21 -5 23 c-6 24 -30 36 -43 23z m201 -59 c35 -29 45 -69 31 -119 -12
-44 -49 -70 -97 -69 -85 3 -125 121 -63 184 38 38 87 39 129 4z"/>
<path d="M3573 840 c-66 -40 -88 -117 -55 -193 25 -55 62 -77 131 -77 42 0 56
5 86 31 19 17 35 37 35 45 0 22 -34 16 -60 -10 -12 -14 -35 -28 -51 -31 -48
-11 -109 33 -109 79 0 14 17 16 116 16 l117 0 -6 40 c-7 54 -31 88 -72 106
-47 19 -94 17 -132 -6z m131 -41 c15 -12 26 -30 26 -45 0 -24 -1 -24 -90 -24
-57 0 -90 4 -90 11 0 16 21 53 39 66 25 20 85 15 115 -8z"/>
<path d="M3921 843 c-86 -45 -95 -189 -16 -251 46 -36 161 -23 178 20 3 7 6 1
6 -14 1 -23 6 -28 26 -28 l26 0 -3 143 c-3 134 -4 142 -23 142 -13 0 -21 -8
-23 -23 l-4 -24 -23 22 c-33 31 -100 37 -144 13z m140 -52 c62 -63 22 -181
-63 -184 -48 -1 -85 25 -97 69 -14 50 -4 90 31 119 42 35 91 34 129 -4z"/>
</g>
</svg>
